<?xml version="1.0" encoding="UTF-8" standalone="no"?>
<!DOCTYPE svg PUBLIC "-//W3C//DTD SVG 1.1//EN" "http://www.w3.org/Graphics/SVG/1.1/DTD/svg11.dtd">
<svg xmlns="http://www.w3.org/2000/svg" xmlns:xl="http://www.w3.org/1999/xlink" version="1.1" viewBox="56 166 112 137" width="112pt" height="137pt" xmlns:dc="http://purl.org/dc/elements/1.1/"><metadata> Produced by OmniGraffle 6.6.2 <dc:date>2019-09-29 23:43:41 +0000</dc:date></metadata><defs/><g stroke="none" stroke-opacity="1" stroke-dasharray="none" fill="none" fill-opacity="1"><title>Canvas 1</title><g><title>Layer 1</title><circle cx="67" cy="177" r="9.0000144" fill="white"/><circle cx="67" cy="177" r="9.0000144" stroke="#d30f45" stroke-linecap="round" stroke-linejoin="round" stroke-width="2"/><circle cx="67" cy="235" r="9.0000144" fill="white"/><circle cx="67" cy="235" r="9.0000144" stroke="#d30f45" stroke-linecap="round" stroke-linejoin="round" stroke-width="2"/><circle cx="67" cy="292" r="9.0000144" fill="white"/><circle cx="67" cy="292" r="9.0000144" stroke="#d30f45" stroke-linecap="round" stroke-linejoin="round" stroke-width="2"/><line x1="157" y1="245" x2="157" y2="282" stroke="#d30f45" stroke-linecap="round" stroke-linejoin="round" stroke-width="2"/><circle cx="157" cy="177" r="9.0000144" fill="white"/><circle cx="157" cy="177" r="9.0000144" stroke="#d30f45" stroke-linecap="round" stroke-linejoin="round" stroke-width="2"/><circle cx="157" cy="292" r="9.0000144" fill="white"/><circle cx="157" cy="292" r="9.0000144" stroke="#d30f45" stroke-linecap="round" stroke-linejoin="round" stroke-width="2"/><circle cx="157" cy="235" r="9.0000144" fill="white"/><circle cx="157" cy="235" r="9.0000144" stroke="#d30f45" stroke-linecap="round" stroke-linejoin="round" stroke-width="2"/><line x1="146.999995" y1="177" x2="77.000005" y2="177" stroke="#d30f45" stroke-linecap="round" stroke-linejoin="round" stroke-width="2"/><line x1="75.407457" y1="182.41814" x2="148.59254" y2="229.58186" stroke="black" stroke-linecap="round" stroke-linejoin="round" stroke-width="2"/><line x1="148.59254" y1="182.41814" x2="75.407457" y2="229.58186" stroke="black" stroke-linecap="round" stroke-linejoin="round" stroke-width="2"/><line x1="75.45001" y1="286.64833" x2="148.54999" y2="240.35167" stroke="black" stroke-linecap="round" stroke-linejoin="round" stroke-width="2"/><line x1="75.45001" y1="240.35167" x2="148.54999" y2="286.64833" stroke="black" stroke-linecap="round" stroke-linejoin="round" stroke-width="2"/><line x1="73.1637" y1="284.12416" x2="150.8363" y2="184.87584" stroke="black" stroke-linecap="round" stroke-linejoin="round" stroke-width="2"/><line x1="77.000005" y1="235" x2="146.999995" y2="235" stroke="#d30f45" stroke-linecap="round" stroke-linejoin="round" stroke-width="2"/><line x1="73.1637" y1="184.87584" x2="150.8363" y2="284.12416" stroke="black" stroke-linecap="round" stroke-linejoin="round" stroke-width="2"/><line x1="146.999995" y1="292" x2="77.000005" y2="292" stroke="#d30f45" stroke-linecap="round" stroke-linejoin="round" stroke-width="2"/><line x1="157" y1="187" x2="157" y2="225" stroke="#d30f45" stroke-linecap="round" stroke-linejoin="round" stroke-width="2"/></g></g></svg>
