<?xml version="1.0" encoding="UTF-8" standalone="no"?>
<!DOCTYPE svg PUBLIC "-//W3C//DTD SVG 1.1//EN" "http://www.w3.org/Graphics/SVG/1.1/DTD/svg11.dtd">
<svg xmlns="http://www.w3.org/2000/svg" xmlns:xl="http://www.w3.org/1999/xlink" version="1.1" viewBox="2 1 117 137" width="117pt" height="137pt" xmlns:dc="http://purl.org/dc/elements/1.1/"><metadata> Produced by OmniGraffle 6.6.2 <dc:date>2019-09-29 23:28:23 +0000</dc:date></metadata><defs/><g stroke="none" stroke-opacity="1" stroke-dasharray="none" fill="none" fill-opacity="1"><title>Canvas 1</title><g><title>Layer 1</title><circle cx="105.56835" cy="15.431649" r="9.0000144" fill="white"/><circle cx="105.56835" cy="15.431649" r="9.0000144" stroke="#de0032" stroke-linecap="round" stroke-linejoin="round" stroke-width="2"/><circle cx="15.575599" cy="16.5738" r="9.0000144" fill="white"/><circle cx="15.575599" cy="16.5738" r="9.0000144" stroke="#de0032" stroke-linecap="round" stroke-linejoin="round" stroke-width="2"/><circle cx="60.934294" cy="16.002724" r="9.0000144" fill="white"/><circle cx="60.934294" cy="16.002724" r="9.0000144" stroke="black" stroke-linecap="round" stroke-linejoin="round" stroke-width="2"/><circle cx="83.03812" cy="69.721942" r="9.0000144" fill="white"/><circle cx="83.03812" cy="69.721942" r="9.0000144" stroke="#de0032" stroke-linecap="round" stroke-linejoin="round" stroke-width="2"/><circle cx="36.867925" cy="70.307915" r="9.0000144" fill="white"/><circle cx="36.867925" cy="70.307915" r="9.0000144" stroke="#de0032" stroke-linecap="round" stroke-linejoin="round" stroke-width="2"/><circle cx="61.36116" cy="123.99403" r="9.0000144" fill="white"/><circle cx="61.36116" cy="123.99403" r="9.0000144" stroke="#de0032" stroke-linecap="round" stroke-linejoin="round" stroke-width="2"/><path d="M 101.734584 24.667708 L 94.19395 42.834098 L 86.870434 60.48528" stroke="#de0032" stroke-linecap="round" stroke-linejoin="round" stroke-width="2"/><path d="M 79.745566 79.164352 C 77.318376 86.006167 73.86552 95.499577 70.492188 103.94531 C 68.653013 108.55001 67.09648 112.19482 65.818254 115.04168" stroke="#de0032" stroke-linecap="round" stroke-linejoin="round" stroke-width="2"/><line x1="41.018681" y1="79.405854" x2="57.210405" y2="114.89609" stroke="#de0032" stroke-linecap="round" stroke-linejoin="round" stroke-width="2"/><line x1="19.259638" y1="25.87098" x2="33.183886" y2="61.010736" stroke="#de0032" stroke-linecap="round" stroke-linejoin="round" stroke-width="2"/><line x1="64.73959" y1="25.25079" x2="79.23282" y2="60.473877" stroke="black" stroke-linecap="round" stroke-linejoin="round" stroke-width="2"/><line x1="56.882555" y1="25.145377" x2="40.919665" y2="61.165262" stroke="black" stroke-linecap="round" stroke-linejoin="round" stroke-width="2"/><line x1="97.753334" y1="21.674099" x2="44.682944" y2="64.065465" stroke="black" stroke-linecap="round" stroke-linejoin="round" stroke-width="2"/><path d="M 23.536242 22.629472 C 28.189253 26.204756 34.915818 31.419528 43.804431 38.422131 C 55.53192 47.66125 67.63921 57.346735 75.244693 63.452184" stroke="black" stroke-linecap="round" stroke-linejoin="round" stroke-width="2"/><line x1="46.869463" y1="70.18098" x2="73.036582" y2="69.848878" stroke="#de0032" stroke-linecap="round" stroke-linejoin="round" stroke-width="2"/></g></g></svg>
